<svg width="107" height="127" viewBox="0 0 107 127" fill="none" xmlns="http://www.w3.org/2000/svg">
<g filter="url(#filter0_d_1_58)">
<g clip-path="url(#paint0_diamond_1_58_clip_path)" data-figma-skip-parse="true"><g transform="matrix(0.0104307 -0.014993 0.0185629 0.0132404 63.544 44.5816)"><rect x="0" y="0" width="1603.66" height="1406.5" fill="url(#paint0_diamond_1_58)" opacity="1" shape-rendering="crispEdges"/><rect x="0" y="0" width="1603.66" height="1406.5" transform="scale(1 -1)" fill="url(#paint0_diamond_1_58)" opacity="1" shape-rendering="crispEdges"/><rect x="0" y="0" width="1603.66" height="1406.5" transform="scale(-1 1)" fill="url(#paint0_diamond_1_58)" opacity="1" shape-rendering="crispEdges"/><rect x="0" y="0" width="1603.66" height="1406.5" transform="scale(-1)" fill="url(#paint0_diamond_1_58)" opacity="1" shape-rendering="crispEdges"/></g></g><path d="M74.7299 55.626L75.327 57.002L74.7299 55.626ZM72.8271 49.7516L71.7057 48.7554L72.8271 49.7516ZM76.8389 38.0822L75.4939 38.7463L76.8389 38.0822ZM69.3988 38.0822L70.83 38.5312L69.3988 38.0822ZM63.544 55.626L62.0457 55.5552L63.544 55.626ZM68.0129 36.3835L66.5181 36.2578L68.0129 36.3835ZM62.6152 26.0435L62.6151 27.5435L62.6152 26.0435ZM59.7704 40.1502L58.2988 40.4408L58.3039 40.4663L58.3098 40.4916L59.7704 40.1502ZM57.5821 35.1279L58.9656 34.5482L57.5821 35.1279ZM50.2879 31.2873L49.5866 29.9614L50.2879 31.2873ZM55.9045 49.53L54.7414 50.4772L55.9045 49.53ZM42.9208 40.1502L44.2026 40.9292L44.2317 40.8813L44.2572 40.8314L42.9208 40.1502ZM63.544 56.9896L63.4194 58.4844C64.5605 58.5796 66.6608 58.5753 68.8671 58.3778C71.0464 58.1828 73.5255 57.7836 75.327 57.002L74.7299 55.626L74.1329 54.2499C72.7915 54.8319 70.7109 55.2008 68.5997 55.3897C66.5155 55.5763 64.5943 55.572 63.6687 55.4948L63.544 56.9896ZM74.7299 55.626L75.327 57.002C77.0384 56.2594 78.7044 55.3271 79.9687 54.2249C81.2023 53.1495 82.2841 51.7048 82.2841 49.939H80.7841H79.2841C79.2841 50.4231 78.9736 51.1125 77.9974 51.9635C77.052 52.7877 75.6909 53.5739 74.1329 54.2499L74.7299 55.626ZM80.7841 49.939H82.2841C82.2841 49.2146 82.1894 47.6442 81.1601 46.3009C80.0437 44.8441 78.1251 44.0158 75.2485 44.2691L75.38 45.7633L75.5116 47.2575C77.668 47.0677 78.4514 47.6983 78.7788 48.1257C79.1933 48.6666 79.2841 49.4056 79.2841 49.939H80.7841ZM62.8876 56.9896L63.7587 58.2107C64.8353 57.4427 66.8471 56.1256 68.9443 54.6724C69.9654 53.9648 70.982 53.2412 71.8453 52.5807C72.6826 51.9402 73.4636 51.2936 73.9484 50.7479L72.8271 49.7516L71.7057 48.7554C71.4309 49.0647 70.8571 49.5595 70.0225 50.198C69.2141 50.8165 68.2419 51.5093 67.2356 52.2066C65.2777 53.5633 63.0795 55.0101 62.0164 55.7685L62.8876 56.9896ZM72.8271 49.7516L73.9484 50.7479C74.9521 49.6181 76.5484 47.579 77.6439 45.2513C78.7112 42.9832 79.4832 40.0494 78.1838 37.418L76.8389 38.0822L75.4939 38.7463C76.1682 40.1119 75.8857 41.9418 74.9295 43.9738C74.0013 45.9461 72.6048 47.7433 71.7057 48.7554L72.8271 49.7516ZM76.8389 38.0822L78.1838 37.418C77.7534 36.5463 77.14 35.6541 76.4129 34.9069C75.6987 34.173 74.7835 33.4858 73.7284 33.1796C72.6016 32.8525 71.3615 32.9832 70.2667 33.8337C69.2483 34.625 68.5034 35.925 67.9675 37.6332L69.3988 38.0822L70.83 38.5312C71.2788 37.1005 71.774 36.4617 72.1073 36.2028C72.3642 36.0032 72.5875 35.9723 72.8922 36.0607C73.2686 36.1699 73.753 36.4752 74.2628 36.9991C74.7598 37.5098 75.1949 38.1409 75.4939 38.7463L76.8389 38.0822ZM69.3988 38.0822L67.9675 37.6332C67.1639 40.195 65.7911 43.4416 64.5275 46.734C63.3145 49.8945 62.1566 53.2046 62.0457 55.5552L63.544 55.626L65.0424 55.6967C65.1263 53.919 66.0736 51.078 67.3283 47.809C68.5322 44.6719 69.9894 41.2108 70.83 38.5312L69.3988 38.0822ZM63.544 55.626L62.0457 55.5552C62.0379 55.7203 62.0438 56.0927 62.2838 56.4738C62.4123 56.6778 62.5912 56.8556 62.8129 56.9844C63.0285 57.1096 63.2417 57.1637 63.4161 57.1833C63.737 57.2196 63.9908 57.1469 64.1021 57.1103C64.2333 57.0673 64.339 57.0151 64.4065 56.9791C64.541 56.9073 64.6601 56.8254 64.7372 56.7704C64.8212 56.7107 64.9047 56.6471 64.9698 56.5974C65.0424 56.542 65.0936 56.5026 65.1414 56.4675C65.1927 56.4297 65.2031 56.4245 65.188 56.4335C65.1801 56.4382 65.1405 56.4617 65.078 56.4884C65.0328 56.5077 64.8735 56.5743 64.6476 56.5905C64.4104 56.6075 63.9037 56.5745 63.4891 56.1409C63.1068 55.741 63.0826 55.2852 63.0847 55.1238L64.5846 55.1432L66.0845 55.1625C66.087 54.9647 66.055 54.4834 65.6576 54.0677C65.2279 53.6183 64.6987 53.5791 64.433 53.5982C64.1784 53.6164 63.9843 53.6933 63.8991 53.7297C63.7966 53.7735 63.7118 53.8209 63.6546 53.855C63.5408 53.9226 63.436 53.9977 63.364 54.0507C63.2884 54.1063 63.2081 54.168 63.1493 54.2129C63.0831 54.2634 63.0356 54.2993 62.9969 54.3268C62.9515 54.3592 62.9566 54.3524 62.994 54.3324C63.0129 54.3223 63.0744 54.2902 63.1665 54.26C63.2388 54.2362 63.4588 54.1691 63.7523 54.2023C63.913 54.2204 64.114 54.2708 64.3192 54.3899C64.5305 54.5126 64.7007 54.682 64.8224 54.8752C65.0486 55.2345 65.0481 55.5749 65.0424 55.6967L63.544 55.626ZM63.544 55.626L64.9942 56.0092C65.6615 53.4845 66.7349 49.2188 67.6653 45.3039C68.1305 43.3465 68.5617 41.4694 68.8891 39.9376C69.208 38.4458 69.4512 37.1797 69.5076 36.5091L68.0129 36.3835L66.5181 36.2578C66.4808 36.7016 66.2846 37.7701 65.9554 39.3105C65.6347 40.8109 65.2093 42.6634 64.7466 44.6103C63.8213 48.5039 62.7539 52.7451 62.0938 55.2427L63.544 55.626ZM68.0129 36.3835L69.5076 36.5091C69.6549 34.7571 69.7846 31.9199 69.0322 29.4712C68.6498 28.2268 68.0096 26.9799 66.9321 26.0404C65.828 25.0776 64.3852 24.5435 62.6152 24.5435V26.0435L62.6151 27.5435C63.745 27.5435 64.4633 27.8679 64.9605 28.3015C65.4844 28.7583 65.8859 29.4456 66.1645 30.3523C66.734 32.2057 66.6626 34.5386 66.5181 36.2578L68.0129 36.3835ZM62.6152 26.0435V24.5435C60.8678 24.5435 59.6425 25.5144 58.8923 26.7986C58.1845 28.0104 57.8452 29.5636 57.694 31.1039C57.3889 34.2137 57.7966 37.8983 58.2988 40.4408L59.7704 40.1502L61.242 39.8595C60.7716 37.4783 60.4135 34.1095 60.6797 31.3969C60.8142 30.026 61.095 28.9757 61.4828 28.3118C61.8282 27.7204 62.1742 27.5435 62.6151 27.5435L62.6152 26.0435ZM59.7704 40.1502L58.3098 40.4916L61.884 55.7801L63.3446 55.4386L64.8052 55.0971L61.231 39.8087L59.7704 40.1502ZM63.3446 56.3249L64.8248 56.0822C64.3107 52.9462 62.9953 47.9242 61.7544 43.5657C60.5218 39.2361 59.3044 35.3569 58.9656 34.5482L57.5821 35.1279L56.1987 35.7075C56.4524 36.3131 57.6178 39.992 58.8691 44.3871C60.1121 48.7533 61.3816 53.6226 61.8643 56.5675L63.3446 56.3249ZM57.5821 35.1279L58.9656 34.5482C58.7274 33.9797 58.417 33.1926 58.0311 32.4468C57.6425 31.6958 57.1222 30.8713 56.3894 30.2104C55.6304 29.5258 54.6531 29.0276 53.4329 28.9566C52.2438 28.8875 50.9654 29.2321 49.5866 29.9614L50.2879 31.2873L50.9893 32.6133C52.054 32.0501 52.7815 31.9238 53.2587 31.9516C53.7048 31.9775 54.0541 32.144 54.3801 32.4381C54.7324 32.7558 55.0554 33.2238 55.3666 33.8254C55.6805 34.432 55.9263 35.0574 56.1987 35.7075L57.5821 35.1279ZM50.2879 31.2873L49.5866 29.9614C47.4557 31.0885 47.1304 33.3517 47.3655 35.304C47.6051 37.2947 48.4629 39.5558 49.4486 41.636C51.4284 45.8141 54.1862 49.7955 54.7414 50.4772L55.9045 49.53L57.0676 48.5828C56.6706 48.0954 54.0402 44.3201 52.1597 40.3514C51.2152 38.3583 50.5249 36.4485 50.344 34.9455C50.1584 33.4042 50.5401 32.8508 50.9893 32.6133L50.2879 31.2873ZM55.9045 49.53L54.7414 50.4772C58.2722 54.813 60.929 56.5329 62.3499 57.7917L63.3446 56.669L64.3393 55.5463C62.6479 54.0478 60.3933 52.6667 57.0676 48.5828L55.9045 49.53ZM63.3446 56.8419L63.4393 55.3449C62.0521 55.2571 59.0445 54.7039 55.818 53.5142C52.5786 52.3198 49.3275 50.559 47.2636 48.1782L46.1302 49.1607L44.9968 50.1433C47.5429 53.0802 51.3428 55.0615 54.7801 56.329C58.2302 57.6012 61.5248 58.2297 63.2498 58.3389L63.3446 56.8419ZM46.1302 49.1607L47.2636 48.1782C45.0586 45.6346 44.2777 43.8506 44.0477 42.7219C43.8276 41.6412 44.098 41.1013 44.2026 40.9292L42.9208 40.1502L41.6389 39.3711C41.16 40.1592 40.7302 41.4657 41.1081 43.3208C41.4763 45.128 42.5919 47.3691 44.9968 50.1433L46.1302 49.1607ZM42.9208 40.1502L44.2572 40.8314C44.3498 40.6496 45.2134 39.539 47.4473 39.8621L47.662 38.3776L47.8767 36.8931C44.3919 36.389 42.2698 38.1243 41.5844 39.469L42.9208 40.1502ZM47.662 38.3776L47.4473 39.8621C48.1547 39.9645 48.5407 40.0302 48.751 40.0719C48.98 40.1173 48.9189 40.1197 48.7973 40.0644C48.7802 40.0566 48.7503 40.0418 48.7838 40.0583C48.8103 40.0714 48.8698 40.1003 48.9481 40.1295C49.104 40.1879 49.2435 40.2139 49.336 40.2287C49.5007 40.2549 49.7545 40.2796 50.1564 40.315L50.2879 38.8207L50.4195 37.3265C50.212 37.3083 50.067 37.2947 49.9642 37.2841C49.9131 37.2789 49.8757 37.2747 49.8486 37.2714C49.8352 37.2698 49.8253 37.2685 49.8183 37.2675C49.8148 37.267 49.8122 37.2667 49.8105 37.2664C49.8087 37.2661 49.8079 37.266 49.8079 37.266C49.8079 37.266 49.809 37.2662 49.8109 37.2665C49.8128 37.2669 49.8159 37.2674 49.8199 37.2682C49.8277 37.2697 49.8404 37.2722 49.857 37.2762C49.8921 37.2845 49.9415 37.2981 49.9994 37.3198C50.0575 37.3415 50.1003 37.3626 50.1096 37.3672C50.1259 37.3752 50.0783 37.3513 50.0389 37.3334C49.828 37.2375 49.6036 37.1826 49.3344 37.1292C49.0464 37.0721 48.599 36.9975 47.8767 36.8931L47.662 38.3776Z" data-figma-gradient-fill="{&#34;type&#34;:&#34;GRADIENT_DIAMOND&#34;,&#34;stops&#34;:[{&#34;color&#34;:{&#34;r&#34;:0.89370769262313843,&#34;g&#34;:0.84088826179504395,&#34;b&#34;:0.54510003328323364,&#34;a&#34;:1.0},&#34;position&#34;:0.0},{&#34;color&#34;:{&#34;r&#34;:0.96388596296310425,&#34;g&#34;:0.91707056760787964,&#34;b&#34;:0.65490591526031494,&#34;a&#34;:1.0},&#34;position&#34;:0.37019231915473938},{&#34;color&#34;:{&#34;r&#34;:0.73886340856552124,&#34;g&#34;:0.67701697349548340,&#34;b&#34;:0.33067634701728821,&#34;a&#34;:1.0},&#34;position&#34;:1.0}],&#34;stopsVar&#34;:[{&#34;color&#34;:{&#34;r&#34;:0.89370769262313843,&#34;g&#34;:0.84088826179504395,&#34;b&#34;:0.54510003328323364,&#34;a&#34;:1.0},&#34;position&#34;:0.0},{&#34;color&#34;:{&#34;r&#34;:0.96388596296310425,&#34;g&#34;:0.91707056760787964,&#34;b&#34;:0.65490591526031494,&#34;a&#34;:1.0},&#34;position&#34;:0.37019231915473938},{&#34;color&#34;:{&#34;r&#34;:0.73886340856552124,&#34;g&#34;:0.67701697349548340,&#34;b&#34;:0.33067634701728821,&#34;a&#34;:1.0},&#34;position&#34;:1.0}],&#34;transform&#34;:{&#34;m00&#34;:20.861461639404297,&#34;m01&#34;:37.125808715820312,&#34;m02&#34;:34.550395965576172,&#34;m10&#34;:-29.985994338989258,&#34;m11&#34;:26.480720520019531,&#34;m12&#34;:46.334236145019531},&#34;opacity&#34;:1.0,&#34;blendMode&#34;:&#34;NORMAL&#34;,&#34;visible&#34;:true}"/>
</g>
<g filter="url(#filter1_d_1_58)">
<path d="M21.6023 103.718C20.7739 103.718 20.1023 104.39 20.1023 105.218C20.1023 106.047 20.7739 106.718 21.6023 106.718V103.718ZM21.6023 105.218V106.718C26.0927 106.718 31.8465 104.839 37.4878 101.718C43.1603 98.5792 48.8786 94.0973 53.2852 88.7073L52.1239 87.7579L50.9626 86.8085C46.8292 91.8644 41.4214 96.1128 36.0354 99.0929C30.6182 102.09 25.3813 103.718 21.6023 103.718V105.218ZM52.1239 87.7579L53.2852 88.7073C62.0971 77.9289 64.8252 64.4765 64.8252 56.1772H63.3252H61.8252C61.8252 63.972 59.2308 76.6951 50.9626 86.8085L52.1239 87.7579Z" fill="url(#paint1_linear_1_58)"/>
</g>
<defs>
<filter id="filter0_d_1_58" x="16.9637" y="0.543457" width="89.3204" height="82.0015" filterUnits="userSpaceOnUse" color-interpolation-filters="sRGB">
<feFlood flood-opacity="0" result="BackgroundImageFix"/>
<feColorMatrix in="SourceAlpha" type="matrix" values="0 0 0 0 0 0 0 0 0 0 0 0 0 0 0 0 0 0 127 0" result="hardAlpha"/>
<feMorphology radius="4" operator="dilate" in="SourceAlpha" result="effect1_dropShadow_1_58"/>
<feOffset/>
<feGaussianBlur stdDeviation="10"/>
<feComposite in2="hardAlpha" operator="out"/>
<feColorMatrix type="matrix" values="0 0 0 0 0.310134 0 0 0 0 0.735551 0 0 0 0 1 0 0 0 1 0"/>
<feBlend mode="normal" in2="BackgroundImageFix" result="effect1_dropShadow_1_58"/>
<feBlend mode="normal" in="SourceGraphic" in2="effect1_dropShadow_1_58" result="shape"/>
</filter>
<clipPath id="paint0_diamond_1_58_clip_path"><path d="M74.7299 55.626L75.327 57.002L74.7299 55.626ZM72.8271 49.7516L71.7057 48.7554L72.8271 49.7516ZM76.8389 38.0822L75.4939 38.7463L76.8389 38.0822ZM69.3988 38.0822L70.83 38.5312L69.3988 38.0822ZM63.544 55.626L62.0457 55.5552L63.544 55.626ZM68.0129 36.3835L66.5181 36.2578L68.0129 36.3835ZM62.6152 26.0435L62.6151 27.5435L62.6152 26.0435ZM59.7704 40.1502L58.2988 40.4408L58.3039 40.4663L58.3098 40.4916L59.7704 40.1502ZM57.5821 35.1279L58.9656 34.5482L57.5821 35.1279ZM50.2879 31.2873L49.5866 29.9614L50.2879 31.2873ZM55.9045 49.53L54.7414 50.4772L55.9045 49.53ZM42.9208 40.1502L44.2026 40.9292L44.2317 40.8813L44.2572 40.8314L42.9208 40.1502ZM63.544 56.9896L63.4194 58.4844C64.5605 58.5796 66.6608 58.5753 68.8671 58.3778C71.0464 58.1828 73.5255 57.7836 75.327 57.002L74.7299 55.626L74.1329 54.2499C72.7915 54.8319 70.7109 55.2008 68.5997 55.3897C66.5155 55.5763 64.5943 55.572 63.6687 55.4948L63.544 56.9896ZM74.7299 55.626L75.327 57.002C77.0384 56.2594 78.7044 55.3271 79.9687 54.2249C81.2023 53.1495 82.2841 51.7048 82.2841 49.939H80.7841H79.2841C79.2841 50.4231 78.9736 51.1125 77.9974 51.9635C77.052 52.7877 75.6909 53.5739 74.1329 54.2499L74.7299 55.626ZM80.7841 49.939H82.2841C82.2841 49.2146 82.1894 47.6442 81.1601 46.3009C80.0437 44.8441 78.1251 44.0158 75.2485 44.2691L75.38 45.7633L75.5116 47.2575C77.668 47.0677 78.4514 47.6983 78.7788 48.1257C79.1933 48.6666 79.2841 49.4056 79.2841 49.939H80.7841ZM62.8876 56.9896L63.7587 58.2107C64.8353 57.4427 66.8471 56.1256 68.9443 54.6724C69.9654 53.9648 70.982 53.2412 71.8453 52.5807C72.6826 51.9402 73.4636 51.2936 73.9484 50.7479L72.8271 49.7516L71.7057 48.7554C71.4309 49.0647 70.8571 49.5595 70.0225 50.198C69.2141 50.8165 68.2419 51.5093 67.2356 52.2066C65.2777 53.5633 63.0795 55.0101 62.0164 55.7685L62.8876 56.9896ZM72.8271 49.7516L73.9484 50.7479C74.9521 49.6181 76.5484 47.579 77.6439 45.2513C78.7112 42.9832 79.4832 40.0494 78.1838 37.418L76.8389 38.0822L75.4939 38.7463C76.1682 40.1119 75.8857 41.9418 74.9295 43.9738C74.0013 45.9461 72.6048 47.7433 71.7057 48.7554L72.8271 49.7516ZM76.8389 38.0822L78.1838 37.418C77.7534 36.5463 77.14 35.6541 76.4129 34.9069C75.6987 34.173 74.7835 33.4858 73.7284 33.1796C72.6016 32.8525 71.3615 32.9832 70.2667 33.8337C69.2483 34.625 68.5034 35.925 67.9675 37.6332L69.3988 38.0822L70.83 38.5312C71.2788 37.1005 71.774 36.4617 72.1073 36.2028C72.3642 36.0032 72.5875 35.9723 72.8922 36.0607C73.2686 36.1699 73.753 36.4752 74.2628 36.9991C74.7598 37.5098 75.1949 38.1409 75.4939 38.7463L76.8389 38.0822ZM69.3988 38.0822L67.9675 37.6332C67.1639 40.195 65.7911 43.4416 64.5275 46.734C63.3145 49.8945 62.1566 53.2046 62.0457 55.5552L63.544 55.626L65.0424 55.6967C65.1263 53.919 66.0736 51.078 67.3283 47.809C68.5322 44.6719 69.9894 41.2108 70.83 38.5312L69.3988 38.0822ZM63.544 55.626L62.0457 55.5552C62.0379 55.7203 62.0438 56.0927 62.2838 56.4738C62.4123 56.6778 62.5912 56.8556 62.8129 56.9844C63.0285 57.1096 63.2417 57.1637 63.4161 57.1833C63.737 57.2196 63.9908 57.1469 64.1021 57.1103C64.2333 57.0673 64.339 57.0151 64.4065 56.9791C64.541 56.9073 64.6601 56.8254 64.7372 56.7704C64.8212 56.7107 64.9047 56.6471 64.9698 56.5974C65.0424 56.542 65.0936 56.5026 65.1414 56.4675C65.1927 56.4297 65.2031 56.4245 65.188 56.4335C65.1801 56.4382 65.1405 56.4617 65.078 56.4884C65.0328 56.5077 64.8735 56.5743 64.6476 56.5905C64.4104 56.6075 63.9037 56.5745 63.4891 56.1409C63.1068 55.741 63.0826 55.2852 63.0847 55.1238L64.5846 55.1432L66.0845 55.1625C66.087 54.9647 66.055 54.4834 65.6576 54.0677C65.2279 53.6183 64.6987 53.5791 64.433 53.5982C64.1784 53.6164 63.9843 53.6933 63.8991 53.7297C63.7966 53.7735 63.7118 53.8209 63.6546 53.855C63.5408 53.9226 63.436 53.9977 63.364 54.0507C63.2884 54.1063 63.2081 54.168 63.1493 54.2129C63.0831 54.2634 63.0356 54.2993 62.9969 54.3268C62.9515 54.3592 62.9566 54.3524 62.994 54.3324C63.0129 54.3223 63.0744 54.2902 63.1665 54.26C63.2388 54.2362 63.4588 54.1691 63.7523 54.2023C63.913 54.2204 64.114 54.2708 64.3192 54.3899C64.5305 54.5126 64.7007 54.682 64.8224 54.8752C65.0486 55.2345 65.0481 55.5749 65.0424 55.6967L63.544 55.626ZM63.544 55.626L64.9942 56.0092C65.6615 53.4845 66.7349 49.2188 67.6653 45.3039C68.1305 43.3465 68.5617 41.4694 68.8891 39.9376C69.208 38.4458 69.4512 37.1797 69.5076 36.5091L68.0129 36.3835L66.5181 36.2578C66.4808 36.7016 66.2846 37.7701 65.9554 39.3105C65.6347 40.8109 65.2093 42.6634 64.7466 44.6103C63.8213 48.5039 62.7539 52.7451 62.0938 55.2427L63.544 55.626ZM68.0129 36.3835L69.5076 36.5091C69.6549 34.7571 69.7846 31.9199 69.0322 29.4712C68.6498 28.2268 68.0096 26.9799 66.9321 26.0404C65.828 25.0776 64.3852 24.5435 62.6152 24.5435V26.0435L62.6151 27.5435C63.745 27.5435 64.4633 27.8679 64.9605 28.3015C65.4844 28.7583 65.8859 29.4456 66.1645 30.3523C66.734 32.2057 66.6626 34.5386 66.5181 36.2578L68.0129 36.3835ZM62.6152 26.0435V24.5435C60.8678 24.5435 59.6425 25.5144 58.8923 26.7986C58.1845 28.0104 57.8452 29.5636 57.694 31.1039C57.3889 34.2137 57.7966 37.8983 58.2988 40.4408L59.7704 40.1502L61.242 39.8595C60.7716 37.4783 60.4135 34.1095 60.6797 31.3969C60.8142 30.026 61.095 28.9757 61.4828 28.3118C61.8282 27.7204 62.1742 27.5435 62.6151 27.5435L62.6152 26.0435ZM59.7704 40.1502L58.3098 40.4916L61.884 55.7801L63.3446 55.4386L64.8052 55.0971L61.231 39.8087L59.7704 40.1502ZM63.3446 56.3249L64.8248 56.0822C64.3107 52.9462 62.9953 47.9242 61.7544 43.5657C60.5218 39.2361 59.3044 35.3569 58.9656 34.5482L57.5821 35.1279L56.1987 35.7075C56.4524 36.3131 57.6178 39.992 58.8691 44.3871C60.1121 48.7533 61.3816 53.6226 61.8643 56.5675L63.3446 56.3249ZM57.5821 35.1279L58.9656 34.5482C58.7274 33.9797 58.417 33.1926 58.0311 32.4468C57.6425 31.6958 57.1222 30.8713 56.3894 30.2104C55.6304 29.5258 54.6531 29.0276 53.4329 28.9566C52.2438 28.8875 50.9654 29.2321 49.5866 29.9614L50.2879 31.2873L50.9893 32.6133C52.054 32.0501 52.7815 31.9238 53.2587 31.9516C53.7048 31.9775 54.0541 32.144 54.3801 32.4381C54.7324 32.7558 55.0554 33.2238 55.3666 33.8254C55.6805 34.432 55.9263 35.0574 56.1987 35.7075L57.5821 35.1279ZM50.2879 31.2873L49.5866 29.9614C47.4557 31.0885 47.1304 33.3517 47.3655 35.304C47.6051 37.2947 48.4629 39.5558 49.4486 41.636C51.4284 45.8141 54.1862 49.7955 54.7414 50.4772L55.9045 49.53L57.0676 48.5828C56.6706 48.0954 54.0402 44.3201 52.1597 40.3514C51.2152 38.3583 50.5249 36.4485 50.344 34.9455C50.1584 33.4042 50.5401 32.8508 50.9893 32.6133L50.2879 31.2873ZM55.9045 49.53L54.7414 50.4772C58.2722 54.813 60.929 56.5329 62.3499 57.7917L63.3446 56.669L64.3393 55.5463C62.6479 54.0478 60.3933 52.6667 57.0676 48.5828L55.9045 49.53ZM63.3446 56.8419L63.4393 55.3449C62.0521 55.2571 59.0445 54.7039 55.818 53.5142C52.5786 52.3198 49.3275 50.559 47.2636 48.1782L46.1302 49.1607L44.9968 50.1433C47.5429 53.0802 51.3428 55.0615 54.7801 56.329C58.2302 57.6012 61.5248 58.2297 63.2498 58.3389L63.3446 56.8419ZM46.1302 49.1607L47.2636 48.1782C45.0586 45.6346 44.2777 43.8506 44.0477 42.7219C43.8276 41.6412 44.098 41.1013 44.2026 40.9292L42.9208 40.1502L41.6389 39.3711C41.16 40.1592 40.7302 41.4657 41.1081 43.3208C41.4763 45.128 42.5919 47.3691 44.9968 50.1433L46.1302 49.1607ZM42.9208 40.1502L44.2572 40.8314C44.3498 40.6496 45.2134 39.539 47.4473 39.8621L47.662 38.3776L47.8767 36.8931C44.3919 36.389 42.2698 38.1243 41.5844 39.469L42.9208 40.1502ZM47.662 38.3776L47.4473 39.8621C48.1547 39.9645 48.5407 40.0302 48.751 40.0719C48.98 40.1173 48.9189 40.1197 48.7973 40.0644C48.7802 40.0566 48.7503 40.0418 48.7838 40.0583C48.8103 40.0714 48.8698 40.1003 48.9481 40.1295C49.104 40.1879 49.2435 40.2139 49.336 40.2287C49.5007 40.2549 49.7545 40.2796 50.1564 40.315L50.2879 38.8207L50.4195 37.3265C50.212 37.3083 50.067 37.2947 49.9642 37.2841C49.9131 37.2789 49.8757 37.2747 49.8486 37.2714C49.8352 37.2698 49.8253 37.2685 49.8183 37.2675C49.8148 37.267 49.8122 37.2667 49.8105 37.2664C49.8087 37.2661 49.8079 37.266 49.8079 37.266C49.8079 37.266 49.809 37.2662 49.8109 37.2665C49.8128 37.2669 49.8159 37.2674 49.8199 37.2682C49.8277 37.2697 49.8404 37.2722 49.857 37.2762C49.8921 37.2845 49.9415 37.2981 49.9994 37.3198C50.0575 37.3415 50.1003 37.3626 50.1096 37.3672C50.1259 37.3752 50.0783 37.3513 50.0389 37.3334C49.828 37.2375 49.6036 37.1826 49.3344 37.1292C49.0464 37.0721 48.599 36.9975 47.8767 36.8931L47.662 38.3776Z"/></clipPath><filter id="filter1_d_1_58" x="0.102295" y="36.1772" width="84.7229" height="90.541" filterUnits="userSpaceOnUse" color-interpolation-filters="sRGB">
<feFlood flood-opacity="0" result="BackgroundImageFix"/>
<feColorMatrix in="SourceAlpha" type="matrix" values="0 0 0 0 0 0 0 0 0 0 0 0 0 0 0 0 0 0 127 0" result="hardAlpha"/>
<feOffset/>
<feGaussianBlur stdDeviation="10"/>
<feComposite in2="hardAlpha" operator="out"/>
<feColorMatrix type="matrix" values="0 0 0 0 0.310134 0 0 0 0 0.735551 0 0 0 0 1 0 0 0 1 0"/>
<feBlend mode="normal" in2="BackgroundImageFix" result="effect1_dropShadow_1_58"/>
<feBlend mode="normal" in="SourceGraphic" in2="effect1_dropShadow_1_58" result="shape"/>
</filter>
<linearGradient id="paint0_diamond_1_58" x1="0" y1="0" x2="500" y2="500" gradientUnits="userSpaceOnUse">
<stop stop-color="#E4D68B"/>
<stop offset="0.370192" stop-color="#F6EAA7"/>
<stop offset="1" stop-color="#BCAD54"/>
</linearGradient>
<linearGradient id="paint1_linear_1_58" x1="42.4638" y1="56.1772" x2="42.4638" y2="105.218" gradientUnits="userSpaceOnUse">
<stop stop-color="#C0C27B"/>
<stop offset="1" stop-color="#A29551"/>
</linearGradient>
</defs>
</svg>
