<svg width="79" height="49" viewBox="0 0 79 49" fill="none" xmlns="http://www.w3.org/2000/svg">
<g filter="url(#filter0_d_14_9)">
<path d="M16.9481 40V31.516H22.8761V32.884H18.4481V35.416H22.2401V36.784H18.4481V40H16.9481Z" fill="#FDC612"/>
<path d="M24.1668 40V31.516H25.6668V38.632H30.0828V40H24.1668Z" fill="#FDC612"/>
<path d="M34.8578 40.096C33.9858 40.096 33.2418 39.912 32.6258 39.544C32.0178 39.176 31.5498 38.664 31.2218 38.008C30.9018 37.352 30.7418 36.604 30.7418 35.764C30.7418 34.908 30.9058 34.156 31.2338 33.508C31.5618 32.852 32.0338 32.34 32.6498 31.972C33.2658 31.596 34.0098 31.408 34.8818 31.408C35.7538 31.408 36.4938 31.592 37.1018 31.96C37.7178 32.328 38.1898 32.84 38.5178 33.496C38.8458 34.144 39.0098 34.892 39.0098 35.74C39.0098 36.58 38.8458 37.328 38.5178 37.984C38.1978 38.64 37.7258 39.156 37.1018 39.532C36.4858 39.908 35.7378 40.096 34.8578 40.096ZM34.8818 38.704C35.4898 38.704 35.9858 38.564 36.3698 38.284C36.7538 38.004 37.0338 37.64 37.2098 37.192C37.3938 36.744 37.4858 36.268 37.4858 35.764C37.4858 35.38 37.4338 35.012 37.3298 34.66C37.2338 34.308 37.0778 33.992 36.8618 33.712C36.6538 33.432 36.3858 33.212 36.0578 33.052C35.7298 32.884 35.3378 32.8 34.8818 32.8C34.2818 32.8 33.7858 32.94 33.3938 33.22C33.0098 33.5 32.7258 33.864 32.5418 34.312C32.3578 34.76 32.2658 35.244 32.2658 35.764C32.2658 36.276 32.3578 36.756 32.5418 37.204C32.7258 37.652 33.0098 38.016 33.3938 38.296C33.7858 38.568 34.2818 38.704 34.8818 38.704Z" fill="#FDC612"/>
<path d="M41.6584 40L39.4984 31.516H41.1784L42.8104 38.44L44.4184 31.516H46.4584L48.0664 38.44L49.6744 31.516H51.2704L49.1224 40H47.0104L45.4144 33.208L43.8064 40H41.6584Z" fill="#FDC612"/>
<path d="M52.3153 40V31.516H58.3033V32.884H53.8153V35.116H57.7153V36.46H53.8153V38.632H58.3033V40H52.3153Z" fill="#FDC612"/>
<path d="M59.7333 40V31.516H63.0813C63.5133 31.516 63.9213 31.56 64.3053 31.648C64.6893 31.728 65.0293 31.872 65.3253 32.08C65.6213 32.28 65.8533 32.556 66.0213 32.908C66.1893 33.26 66.2733 33.696 66.2733 34.216C66.2733 34.648 66.1973 35.028 66.0453 35.356C65.8933 35.684 65.6813 35.96 65.4093 36.184C65.1453 36.408 64.8293 36.58 64.4613 36.7L66.3213 40H64.6413L62.9733 36.94H61.2333V40H59.7333ZM61.2333 35.608H62.8773C63.1493 35.608 63.3973 35.588 63.6213 35.548C63.8533 35.5 64.0533 35.424 64.2213 35.32C64.3973 35.216 64.5293 35.076 64.6173 34.9C64.7133 34.716 64.7653 34.484 64.7733 34.204C64.7733 33.868 64.7013 33.604 64.5573 33.412C64.4213 33.22 64.2213 33.084 63.9573 33.004C63.7013 32.924 63.3933 32.884 63.0333 32.884H61.2333V35.608Z" fill="#FDC612"/>
<path d="M71.0338 40.096C70.4658 40.096 69.9298 40.012 69.4258 39.844C68.9298 39.668 68.5138 39.392 68.1778 39.016C67.8418 38.632 67.6218 38.132 67.5178 37.516H69.0418C69.1378 37.828 69.2898 38.072 69.4978 38.248C69.7138 38.424 69.9658 38.548 70.2538 38.62C70.5418 38.684 70.8338 38.716 71.1298 38.716C71.3938 38.716 71.6418 38.684 71.8738 38.62C72.1138 38.548 72.3098 38.432 72.4618 38.272C72.6218 38.112 72.7018 37.9 72.7018 37.636C72.7018 37.436 72.6578 37.276 72.5698 37.156C72.4898 37.028 72.3738 36.924 72.2218 36.844C72.0778 36.756 71.9018 36.688 71.6938 36.64C71.4938 36.576 71.2778 36.52 71.0458 36.472C70.8138 36.424 70.5858 36.372 70.3618 36.316C70.1378 36.26 69.9258 36.188 69.7258 36.1C69.4698 36.012 69.2218 35.912 68.9818 35.8C68.7498 35.68 68.5458 35.536 68.3698 35.368C68.2018 35.2 68.0658 34.992 67.9618 34.744C67.8578 34.496 67.8058 34.2 67.8058 33.856C67.8058 33.464 67.8698 33.128 67.9978 32.848C68.1338 32.56 68.3098 32.324 68.5258 32.14C68.7498 31.956 68.9978 31.812 69.2698 31.708C69.5498 31.604 69.8378 31.528 70.1338 31.48C70.4378 31.432 70.7258 31.408 70.9978 31.408C71.5258 31.408 72.0058 31.496 72.4378 31.672C72.8778 31.848 73.2378 32.12 73.5178 32.488C73.7978 32.856 73.9578 33.328 73.9978 33.904H72.5458C72.5138 33.632 72.4178 33.416 72.2578 33.256C72.0978 33.088 71.8978 32.968 71.6578 32.896C71.4178 32.816 71.1578 32.776 70.8778 32.776C70.6858 32.776 70.4938 32.792 70.3018 32.824C70.1178 32.856 69.9498 32.912 69.7978 32.992C69.6538 33.072 69.5338 33.18 69.4378 33.316C69.3498 33.444 69.3058 33.608 69.3058 33.808C69.3058 33.984 69.3498 34.14 69.4378 34.276C69.5258 34.404 69.6458 34.512 69.7978 34.6C69.9578 34.688 70.1458 34.768 70.3618 34.84C70.6418 34.952 70.9458 35.036 71.2738 35.092C71.6098 35.148 71.9258 35.224 72.2218 35.32C72.5098 35.4 72.7738 35.5 73.0138 35.62C73.2618 35.732 73.4738 35.872 73.6498 36.04C73.8258 36.2 73.9618 36.4 74.0578 36.64C74.1618 36.872 74.2138 37.152 74.2138 37.48C74.2138 37.96 74.1258 38.368 73.9498 38.704C73.7818 39.032 73.5458 39.3 73.2418 39.508C72.9458 39.716 72.6058 39.868 72.2218 39.964C71.8458 40.052 71.4498 40.096 71.0338 40.096Z" fill="#FDC612"/>
<path d="M11.0561 30.608C9.7761 30.608 8.5921 30.288 7.5041 29.648C6.4481 29.04 5.6001 28.192 4.9601 27.104C4.3521 26.048 4.0481 24.88 4.0481 23.6C4.0481 21.328 4.9921 19.392 6.8801 17.792C8.6721 16.256 10.7201 15.488 13.0241 15.488C16.3521 15.488 18.0161 16.784 18.0161 19.376C18.0161 20.336 17.7121 21.2 17.1041 21.968C16.4961 22.704 15.7281 23.072 14.8001 23.072C14.2241 23.072 13.9361 22.928 13.9361 22.64C13.9361 22.416 14.1921 22.24 14.7041 22.112C15.4401 21.92 15.9201 21.728 16.1441 21.536C16.6881 21.152 16.9601 20.608 16.9601 19.904C16.9601 18.848 16.5601 18.016 15.7601 17.408C14.9921 16.8 14.0641 16.496 12.9761 16.496C11.7921 16.496 10.6401 16.848 9.5201 17.552C8.4321 18.256 7.5361 19.168 6.8321 20.288C6.1281 21.376 5.7761 22.528 5.7761 23.744C5.7761 25.376 6.3361 26.704 7.4561 27.728C8.5761 28.784 9.9681 29.312 11.6321 29.312C14.3521 29.312 16.9121 27.504 19.3121 23.888C19.7281 23.248 20.3201 22.192 21.0881 20.72C21.8881 19.216 22.8481 17.28 23.9681 14.912C24.4161 14.016 24.7841 13.248 25.0721 12.608C25.3601 11.968 25.5681 11.456 25.6961 11.072L27.1841 7.232C25.9041 4.832 24.0161 3.632 21.5201 3.632C19.9841 3.632 18.6721 4.16 17.5841 5.216C16.5281 6.24 16.0001 7.52 16.0001 9.056C16.0001 10.176 16.3521 11.184 17.0561 12.08C17.8241 13.104 18.7361 13.616 19.7921 13.616C20.4961 13.616 21.1361 13.392 21.7121 12.944C22.2881 12.464 22.5761 11.888 22.5761 11.216C22.5761 10.992 22.5121 10.736 22.3841 10.448C22.2561 10.16 22.1921 9.952 22.1921 9.824C22.1921 9.6 22.2881 9.488 22.4801 9.488C22.7681 9.488 23.0081 9.696 23.2001 10.112C23.3921 10.528 23.4881 10.896 23.4881 11.216C23.4881 12.144 23.0721 12.928 22.2401 13.568C21.4401 14.208 20.5601 14.528 19.6001 14.528C18.7041 14.528 17.8721 14.288 17.1041 13.808C16.3681 13.328 15.7761 12.688 15.3281 11.888C14.8801 11.088 14.6561 10.24 14.6561 9.344C14.6561 7.968 14.9761 6.768 15.6161 5.744C16.2881 4.72 17.1841 3.92 18.3041 3.344C19.4241 2.736 20.6561 2.432 22.0001 2.432C24.6241 2.432 26.7201 3.488 28.2881 5.6C28.7681 5.088 29.2321 4.832 29.6801 4.832C30.0321 4.832 30.2081 4.992 30.2081 5.312C30.2081 5.504 29.9201 6.176 29.3441 7.328C30.0161 9.28 30.8481 11.712 31.8401 14.624C32.8321 17.504 33.9841 20.896 35.2961 24.8C35.6481 24.064 36.5601 21.664 38.0321 17.6C39.8241 12.736 41.1361 9.44 41.9681 7.712C44.3041 2.976 46.5761 0.608002 48.7841 0.608002C49.1041 0.608002 49.4401 0.736002 49.7921 0.992002C50.1441 1.216 50.3201 1.488 50.3201 1.808C50.3201 2.064 50.0161 2.192 49.4081 2.192C48.4161 2.192 47.3281 2.928 46.1441 4.4C43.5201 7.696 40.8801 13.216 38.2241 20.96C38.0961 21.408 37.8881 22.048 37.6001 22.88C37.3121 23.68 36.9601 24.672 36.5441 25.856C36.1921 26.784 35.5521 27.248 34.6241 27.248C34.2721 27.248 34.0641 27.136 34.0001 26.912L33.4241 25.328C32.7201 23.28 31.9361 20.96 31.0721 18.368C30.2081 15.776 29.2641 12.912 28.2401 9.776C27.9841 10.288 27.6161 11.056 27.1361 12.08C26.6881 13.072 26.1121 14.32 25.4081 15.824C23.4561 19.984 21.6481 23.152 19.9841 25.328C17.2321 28.848 14.2561 30.608 11.0561 30.608Z" fill="#FDC612"/>
<path d="M49.4426 10.112C49.1546 10.112 48.8186 9.968 48.4346 9.68C48.0826 9.36 47.9066 9.056 47.9066 8.768C47.9066 8.48 48.0666 8.208 48.3866 7.952C48.7386 7.664 49.1386 7.424 49.5866 7.232C50.0346 7.04 50.4186 6.944 50.7386 6.944C50.9306 6.944 51.0266 7.04 51.0266 7.232C51.0266 7.36 50.8506 7.6 50.4986 7.952C50.1146 8.336 49.9066 8.56 49.8746 8.624L49.8266 9.488C49.8266 9.904 49.6986 10.112 49.4426 10.112ZM43.1066 26.288C41.9226 26.288 41.3306 25.648 41.3306 24.368C41.3306 22.64 42.5146 19.312 44.8826 14.384C45.7786 12.432 46.8186 11.456 48.0026 11.456C48.3226 11.456 48.4826 11.536 48.4826 11.696C44.6106 18.736 42.6746 23.04 42.6746 24.608C42.6746 25.12 42.8826 25.376 43.2986 25.376C43.4906 25.376 43.7626 25.264 44.1146 25.04C44.4666 24.784 44.8346 24.512 45.2186 24.224C45.6026 23.904 45.9226 23.632 46.1786 23.408C46.4346 23.152 46.5626 23.024 46.5626 23.024C46.6266 23.024 46.6906 23.2 46.7546 23.552C46.7546 23.936 46.5306 24.352 46.0826 24.8C45.6346 25.216 45.1226 25.568 44.5466 25.856C44.0026 26.144 43.5226 26.288 43.1066 26.288Z" fill="#FDC612"/>
<path d="M47.2713 26.432C46.9513 26.432 46.7913 26.288 46.7913 26C46.7913 25.776 47.2233 24.784 48.0873 23.024L50.4393 18.128C50.9513 17.072 51.3353 16.128 51.5913 15.296C51.8473 14.432 52.0393 13.696 52.1673 13.088C52.2313 12.64 52.4873 12.192 52.9353 11.744C53.3833 11.264 53.8153 11.024 54.2313 11.024C54.5193 11.024 54.6633 11.2 54.6633 11.552C54.6633 12.032 53.3833 14.976 50.8233 20.384C52.5193 17.824 53.8153 16 54.7113 14.912C56.7273 12.48 58.3753 11.264 59.6553 11.264C60.1353 11.264 60.3753 11.424 60.3753 11.744C60.3753 12.544 59.6233 14.528 58.1193 17.696C56.5833 20.8 55.8153 22.64 55.8153 23.216C55.8153 23.312 55.8473 23.392 55.9113 23.456C55.9753 23.52 56.0073 23.6 56.0073 23.696C56.0073 23.888 55.8473 24.256 55.5273 24.8C55.2393 25.344 54.9993 25.696 54.8073 25.856C54.4873 26.112 54.1833 26.24 53.8953 26.24C53.4473 26.24 53.2233 26.064 53.2233 25.712C53.2233 24.912 54.0873 22.816 55.8153 19.424C57.5113 15.968 58.3593 13.952 58.3593 13.376C58.3593 13.152 58.2953 13.04 58.1673 13.04C57.4953 13.04 55.7673 14.896 52.9833 18.608C52.2153 19.632 51.5273 20.656 50.9193 21.68C50.3113 22.672 49.7833 23.664 49.3353 24.656C48.8233 25.84 48.1353 26.432 47.2713 26.432Z" fill="#FDC612"/>
<path d="M65.1821 26.336C64.8941 26.336 64.7501 26.128 64.7501 25.712C64.7501 24.624 65.3421 22.592 66.5261 19.616C65.8221 20.896 65.0061 22.192 64.0781 23.504C62.7341 25.36 61.6941 26.288 60.9581 26.288C59.9341 26.288 59.4221 25.568 59.4221 24.128C59.4221 22.624 60.0941 20.656 61.4381 18.224C62.0461 17.104 62.9741 15.92 64.2221 14.672C65.6941 13.2 66.9261 12.464 67.9181 12.464C68.7181 12.464 69.1181 12.784 69.1181 13.424C69.1181 13.68 69.0381 14.016 68.8781 14.432C68.7501 14.848 68.5901 15.056 68.3981 15.056C68.3661 15.056 68.2701 14.912 68.1101 14.624C67.9501 14.368 67.7741 14.24 67.5821 14.24C66.9101 14.24 65.9981 14.896 64.8461 16.208C63.2141 18.064 62.0781 19.904 61.4381 21.728C60.9581 23.008 60.7181 24.032 60.7181 24.8C60.7181 25.248 60.8301 25.472 61.0541 25.472C61.5661 25.472 62.7501 24.08 64.6061 21.296C65.5021 19.984 66.2221 18.896 66.7661 18.032C67.3101 17.136 67.6621 16.48 67.8221 16.064C67.9181 15.808 68.1741 15.488 68.5901 15.104C69.0381 14.688 69.3741 14.48 69.5981 14.48C69.7261 14.48 69.7901 14.576 69.7901 14.768C69.7901 14.96 69.6941 15.296 69.5021 15.776C67.4541 20.768 66.4301 23.664 66.4301 24.464C66.4301 24.752 66.4941 24.896 66.6221 24.896C66.7181 24.896 67.0221 24.64 67.5341 24.128C68.0461 23.616 68.3661 23.36 68.4941 23.36C68.6221 23.36 68.6861 23.456 68.6861 23.648C68.6861 23.904 68.4461 24.256 67.9661 24.704C67.5181 25.12 67.0061 25.504 66.4301 25.856C65.8861 26.176 65.4701 26.336 65.1821 26.336Z" fill="#FDC612"/>
</g>
<defs>
<filter id="filter0_d_14_9" x="0.0480957" y="0.608002" width="78.1658" height="47.488" filterUnits="userSpaceOnUse" color-interpolation-filters="sRGB">
<feFlood flood-opacity="0" result="BackgroundImageFix"/>
<feColorMatrix in="SourceAlpha" type="matrix" values="0 0 0 0 0 0 0 0 0 0 0 0 0 0 0 0 0 0 127 0" result="hardAlpha"/>
<feOffset dy="4"/>
<feGaussianBlur stdDeviation="2"/>
<feComposite in2="hardAlpha" operator="out"/>
<feColorMatrix type="matrix" values="0 0 0 0 0.471154 0 0 0 0 0.853804 0 0 0 0 0.942308 0 0 0 0.7 0"/>
<feBlend mode="normal" in2="BackgroundImageFix" result="effect1_dropShadow_14_9"/>
<feBlend mode="normal" in="SourceGraphic" in2="effect1_dropShadow_14_9" result="shape"/>
</filter>
</defs>
</svg>
